<?xml version="1.0" encoding="UTF-8"?>
<svg width="1px" height="1px" viewBox="0 0 1 1" version="1.1" xmlns="http://www.w3.org/2000/svg" xmlns:xlink="http://www.w3.org/1999/xlink">
    <title>Shape</title>
    <g id="Page-1" stroke="none" stroke-width="1" fill="none" fill-rule="evenodd">
        <g id="Group" fill="#000000" fill-rule="nonzero">
            <path d="M0.785614869,0.482142857 L0.0089407617,0.482142857 C0.00403004741,0.482142857 1.21902695e-05,0.486160714 1.21902695e-05,0.491071429 L1.21902695e-05,0.558035714 C1.21902695e-05,0.562946429 0.00403004741,0.566964286 0.0089407617,0.566964286 L0.68438719,0.566964286 L0.523338083,0.771205357 C0.51876219,0.777008929 0.522891655,0.785714286 0.530369333,0.785714286 L0.611284512,0.785714286 C0.616753262,0.785714286 0.62188719,0.783258929 0.625347012,0.77890625 L0.813739869,0.539955357 C0.832155047,0.516517857 0.815525583,0.482142857 0.785614869,0.482142857 L0.785614869,0.482142857 Z M0.81251219,0.21875 L0.137065762,0.21875 L0.298114869,0.0145089286 C0.302690762,0.00870535714 0.298561297,-5.55111512e-17 0.291083619,-5.55111512e-17 L0.21016844,-5.55111512e-17 C0.20469969,-5.55111512e-17 0.199565762,0.00245535714 0.19610594,0.00680803571 L0.00771308313,0.245758929 C-0.0107020954,0.269196429 0.00592736884,0.303571429 0.035726476,0.303571429 L0.81251219,0.303571429 C0.817422905,0.303571429 0.821440762,0.299553571 0.821440762,0.294642857 L0.821440762,0.227678571 C0.821440762,0.222767857 0.817422905,0.21875 0.81251219,0.21875 Z" id="Shape"></path>
        </g>
    </g>
</svg>